<?xml version="1.0" standalone="no"?>
<!DOCTYPE svg PUBLIC "-//W3C//DTD SVG 20010904//EN"
 "http://www.w3.org/TR/2001/REC-SVG-20010904/DTD/svg10.dtd">
<svg version="1.0" xmlns="http://www.w3.org/2000/svg"
 width="896.000000pt" height="896.000000pt" viewBox="0 0 896.000000 896.000000"
 preserveAspectRatio="xMidYMid meet">
<metadata>
Created by potrace 1.14, written by Peter Selinger 2001-2017
</metadata>
<g transform="translate(0.000000,896.000000) scale(0.100000,-0.100000)"
fill="#000000" stroke="none">
<path d="M3938 8954 c-2 -2 -42 -6 -89 -9 -144 -9 -219 -19 -354 -45 -27 -5
-66 -12 -85 -15 -19 -3 -69 -14 -110 -25 -41 -11 -86 -22 -100 -25 -63 -13
-236 -70 -365 -120 -11 -5 -23 -7 -27 -7 -5 1 -8 -3 -8 -8 0 -5 -3 -9 -7 -8
-5 0 -17 -2 -28 -6 -63 -25 -256 -116 -274 -129 -7 -6 -18 -12 -25 -13 -6 -1
-42 -20 -79 -43 -37 -22 -72 -41 -77 -41 -6 0 -10 -4 -10 -10 0 -5 -5 -10 -11
-10 -13 0 -226 -140 -309 -204 -75 -58 -145 -113 -179 -141 -195 -163 -457
-440 -606 -640 -32 -44 -62 -82 -65 -85 -33 -29 -309 -479 -325 -531 -4 -13
-11 -26 -15 -29 -10 -7 -148 -299 -165 -350 -1 -3 -7 -18 -14 -35 -20 -49 -94
-250 -91 -250 0 0 -9 -27 -20 -60 -12 -33 -23 -64 -24 -70 -2 -5 -8 -30 -15
-55 -7 -25 -15 -52 -17 -60 -2 -8 -17 -68 -33 -133 -16 -65 -32 -132 -34 -150
-3 -18 -10 -52 -15 -77 -13 -55 -23 -115 -27 -155 -2 -16 -4 -30 -5 -30 -1 0
-3 -11 -5 -25 -1 -14 -5 -43 -8 -65 -22 -145 -25 -171 -43 -405 -11 -127 -11
-688 -1 -820 4 -52 9 -122 11 -155 3 -33 5 -60 6 -60 2 0 3 -5 15 -120 4 -38
9 -79 11 -90 3 -11 6 -36 9 -55 4 -41 11 -79 30 -175 7 -38 17 -88 21 -110 11
-60 53 -229 80 -322 8 -29 15 -54 15 -55 0 -2 13 -41 30 -88 16 -47 31 -89 33
-95 11 -44 47 -140 67 -177 5 -10 9 -22 9 -28 0 -6 10 -32 21 -58 39 -86 99
-216 126 -272 60 -124 239 -435 275 -476 10 -11 18 -24 18 -28 0 -4 6 -14 12
-21 28 -31 38 -44 38 -51 0 -3 11 -20 25 -38 34 -42 37 -46 65 -86 13 -19 27
-37 31 -40 3 -3 28 -32 55 -65 107 -133 284 -318 399 -420 172 -151 341 -285
428 -336 20 -13 37 -26 37 -31 0 -4 6 -8 13 -8 7 0 22 -8 33 -18 10 -9 30 -23
44 -30 14 -7 37 -20 52 -30 93 -61 381 -209 450 -231 21 -7 40 -17 43 -22 4
-5 13 -9 21 -9 8 0 33 -9 57 -19 108 -50 465 -154 607 -177 38 -6 64 -11 95
-17 62 -14 175 -27 365 -44 94 -9 512 -9 605 0 169 15 191 17 215 23 14 4 35
8 46 10 55 7 104 16 164 30 36 9 72 17 80 19 80 19 327 99 385 125 75 34 237
100 245 100 5 0 10 3 10 8 0 8 51 33 61 29 3 -1 12 3 20 10 8 6 54 32 103 58
100 52 125 67 140 78 6 4 65 43 131 86 105 68 209 143 255 183 8 7 30 26 50
41 63 50 172 150 252 231 43 44 78 75 79 70 8 -93 15 -146 24 -184 4 -14 8
-36 9 -50 2 -14 9 -38 15 -53 6 -15 14 -39 17 -53 3 -13 10 -27 15 -30 5 -3 9
-14 9 -25 0 -10 5 -19 10 -19 6 0 10 -7 10 -16 0 -28 113 -187 180 -254 44
-43 200 -160 215 -160 3 0 30 -12 62 -26 45 -21 173 -64 186 -62 1 0 18 -3 37
-6 19 -4 55 -8 80 -9 25 -2 51 -7 58 -11 7 -4 12 -4 12 1 0 4 37 8 83 9 96 1
151 9 227 31 30 9 60 17 66 19 29 6 186 91 234 127 77 59 174 161 225 237 41
63 108 190 99 190 -2 0 3 16 11 36 8 20 18 48 21 63 33 150 33 105 31 3726 -2
1953 -6 3566 -10 3585 -5 19 -13 53 -19 75 -6 22 -13 49 -15 59 -2 11 -8 25
-14 33 -6 7 -9 13 -5 13 12 0 -72 155 -117 216 -110 149 -247 253 -424 323
-29 11 -53 18 -53 15 0 -4 -6 -1 -14 5 -8 7 -29 14 -48 16 -18 2 -44 7 -58 10
-43 11 -302 14 -355 4 -27 -5 -60 -11 -73 -14 -31 -5 -63 -15 -87 -25 -22 -9
-57 -22 -65 -25 -5 -1 -82 -40 -121 -60 -11 -5 -19 -13 -19 -17 0 -5 -5 -8
-10 -8 -11 0 -24 -10 -61 -42 -10 -10 -22 -18 -25 -18 -21 0 -204 -222 -204
-248 0 -6 -4 -12 -8 -14 -20 -8 -92 -194 -107 -277 -10 -54 -18 -118 -20 -176
-2 -33 -4 -62 -4 -64 -1 -2 -20 14 -44 35 -23 22 -65 58 -92 81 -28 23 -60 50
-72 60 -12 11 -34 28 -49 39 -14 10 -48 36 -75 57 -27 20 -53 37 -58 37 -5 0
-11 4 -13 8 -4 11 -151 107 -273 179 -93 54 -359 181 -489 233 -123 49 -295
111 -306 110 -3 0 -25 7 -50 15 -25 8 -56 17 -70 19 -14 3 -25 5 -25 6 0 1 -7
3 -15 5 -8 2 -44 11 -80 20 -36 8 -81 18 -100 20 -19 3 -55 9 -80 15 -25 5
-63 12 -85 14 -22 3 -53 8 -70 11 -28 4 -64 8 -175 20 -57 6 -597 15 -602 9z
m737 -1779 c61 -5 122 -9 138 -9 15 -1 27 -4 27 -7 0 -3 10 -6 23 -5 12 1 36
-1 52 -6 17 -4 44 -10 60 -12 17 -3 41 -8 55 -12 14 -3 34 -7 45 -9 11 -2 40
-11 65 -20 25 -9 56 -19 70 -21 13 -3 30 -10 37 -16 7 -6 13 -8 13 -5 0 3 41
-12 90 -33 50 -21 90 -35 90 -32 0 4 4 2 8 -4 4 -5 27 -20 52 -32 84 -40 254
-145 314 -192 6 -5 40 -33 76 -61 101 -80 288 -272 378 -388 45 -57 112 -150
112 -155 0 -3 13 -24 29 -48 26 -40 61 -102 107 -188 10 -19 17 -38 16 -42 -1
-5 2 -8 8 -8 5 0 10 -4 10 -10 0 -5 14 -40 31 -77 67 -146 152 -402 185 -558
35 -166 66 -407 77 -593 2 -19 -1 -36 -5 -39 -5 -2 -5 -10 -1 -16 10 -16 10
-257 0 -257 -4 0 -3 -8 2 -19 6 -10 8 -21 5 -24 -3 -3 -8 -32 -9 -64 -5 -75
-22 -229 -30 -273 -3 -13 -7 -42 -10 -65 -4 -22 -10 -56 -15 -75 -5 -19 -12
-51 -15 -70 -7 -41 -48 -190 -72 -258 -8 -26 -16 -51 -18 -57 -1 -5 -6 -21
-12 -35 -6 -14 -19 -50 -31 -81 -11 -30 -36 -90 -56 -133 -20 -43 -36 -79 -36
-82 0 -2 -11 -22 -25 -44 -14 -22 -22 -40 -18 -40 5 0 4 -4 -2 -8 -5 -4 -19
-25 -30 -47 -11 -22 -22 -42 -26 -45 -3 -3 -8 -12 -12 -20 -8 -17 -30 -53 -37
-60 -10 -10 -50 -69 -50 -74 0 -5 -8 -16 -52 -68 -10 -12 -18 -24 -18 -27 0
-4 -18 -27 -40 -51 -23 -25 -51 -57 -64 -73 -62 -74 -180 -188 -261 -252 -27
-22 -55 -44 -61 -50 -36 -31 -55 -45 -63 -45 -5 0 -11 -4 -13 -8 -10 -25 -307
-192 -423 -237 -11 -5 -22 -9 -25 -10 -3 -1 -20 -6 -37 -10 -18 -4 -33 -11
-33 -15 0 -4 -12 -10 -27 -13 -16 -2 -71 -16 -123 -30 -52 -14 -109 -28 -127
-30 -17 -3 -35 -7 -40 -10 -4 -3 -37 -8 -73 -12 -36 -4 -74 -9 -85 -11 -110
-22 -427 -22 -610 0 -53 7 -129 18 -150 23 -11 2 -31 6 -45 9 -53 11 -185 46
-195 52 -5 4 -14 7 -20 8 -27 5 -194 70 -220 86 -16 10 -37 18 -47 18 -9 0
-18 3 -20 8 -1 4 -32 22 -68 41 -66 35 -224 137 -271 175 -14 11 -43 35 -64
51 -55 42 -273 260 -325 324 -24 29 -63 81 -87 115 -23 33 -48 68 -56 76 -7 8
-33 49 -56 90 -24 41 -51 83 -59 93 -8 9 -11 17 -6 17 5 0 5 4 -1 8 -10 7 -57
100 -53 105 2 1 -7 18 -19 37 -12 19 -35 69 -52 110 -16 41 -35 89 -42 105 -7
17 -14 39 -16 49 -2 11 -7 24 -12 30 -5 6 -11 22 -14 36 -3 14 -15 57 -26 95
-12 39 -23 79 -25 90 -2 11 -11 47 -19 80 -9 33 -18 78 -22 100 -3 23 -8 52
-10 65 -9 46 -14 75 -19 120 -3 25 -8 63 -11 85 -26 208 -21 668 9 840 3 17 8
50 11 75 6 45 11 77 21 135 3 17 16 75 30 130 14 55 27 107 29 115 2 8 8 29
15 45 6 17 12 32 12 35 2 16 62 188 83 235 44 103 100 222 110 235 7 8 15 24
19 35 8 21 125 216 135 225 4 3 15 18 24 33 10 16 25 36 32 45 8 9 36 44 62
77 26 32 63 75 81 94 17 19 32 39 32 43 0 4 4 8 8 8 5 0 45 36 89 80 44 44 84
80 87 80 4 0 17 10 29 23 12 12 45 39 72 59 28 21 55 41 60 45 149 116 416
244 640 309 48 14 228 54 260 58 22 2 40 5 40 6 0 3 26 5 150 15 50 4 91 8 92
9 5 4 207 -2 308 -9z"/>
</g>
</svg>
